<svg xmlns="http://www.w3.org/2000/svg" version="1.1" xmlns:xlink="http://www.w3.org/1999/xlink" xmlns:svgjs="http://svgjs.dev/svgjs" width="100%" height="100%" viewBox="0 0 1000 600"><rect width="1000" height="600" x="0" y="0" fill="#2b3252"/><g><rect width="333.3333333333333" height="333.3333333333333" rx="13.333333333333334" ry="13.333333333333334" y="247.44535993772084" fill="#fad744" transform="matrix(0.5550050934186386,0,0,0.5550050934186385,0,70.16570370524751)" x="225.22315979003906"/><path d="M336.29089940475683 487.1087374049249L321.0042770221193 487.1087374049249L321.0042770221193 396.5601556303502L332.530883415479 396.128678385679L288.1503668207249 425.4074914169404L281.27755070917624 413.66514640124507L328.52430900067486 383.70829769978604L336.29089940475683 383.70829769978604L336.29089940475683 487.1087374049249ZM453.0363138915128 489.112024612327L453.0363138915128 489.112024612327Q430.84605559413575 489.112024612327 413.8643440360041 479.8969034582774Q396.8826324778725 470.6817823042278 387.45177270148724 454.1623677939582Q378.02091292510204 437.6121334804978 378.02091292510204 415.66843360864715L378.02091292510204 415.66843360864715Q378.02091292510204 398.34770421541674 383.78421612178187 384.2630541572205Q389.5475193184618 370.1784040990242 400.08789200971586 360.0695086524413Q410.62826470096996 349.9606132058584 424.743734562357 344.53632784427737Q438.82838462055327 339.1120424826963 455.4710783435861 339.1120424826963L455.4710783435861 339.1120424826963Q467.67572040714344 339.1120424826963 478.9865881781676 342.19402280177644Q490.2974559491917 345.3068229240474 500.2830721830114 351.31668454625367L500.2830721830114 351.31668454625367L492.51648177892946 365.74035243954876Q482.9931625929718 358.62097790247367 473.2232849814877 354.95342132276824Q463.4534073700037 351.31668454625367 451.9268009766439 351.31668454625367L451.9268009766439 351.31668454625367Q434.8218102057491 351.31668454625367 422.18569089752054 359.08327495033564Q409.5187517861011 366.8498653544176 402.55347626497996 380.7187767902783Q395.55738094066805 394.58768822613894 395.55738094066805 412.98711073104744L395.55738094066805 412.98711073104744Q395.55738094066805 432.3111273316799 403.41643075432245 446.734795224975Q411.3063003711676 461.1584631182701 424.62045534959384 469.1407921446877Q437.9346103280201 477.12312117110525 454.3615654287172 477.12312117110525L454.3615654287172 477.12312117110525Q466.78194611461026 477.12312117110525 476.9833009707655 472.9008081339655Q487.1846558269208 468.6784950968256 495.41354327886484 461.3742017406057L495.41354327886484 461.3742017406057L502.5020980127491 474.22605967116993Q491.40696886406056 481.56117283058063 479.2023268005032 485.32118881985843Q466.99768473694587 489.112024612327 453.0363138915128 489.112024612327Z " fill="#2b3252" transform="matrix(0.5550050934186386,0,0,0.5550050934186385,0,70.16570370524751)"/><path d="M715.7957128130718 489.112024612327L715.7957128130718 489.112024612327Q694.4992288082279 489.112024612327 677.733255872432 479.55788562317855Q660.9981027398267 470.0345664372209 651.4439637506782 453.1453142886617Q641.8898247615298 436.28688194329334 641.8898247615298 414.7746593161139L641.8898247615298 414.7746593161139Q641.8898247615298 397.9162269707455 647.7764071709729 383.92403632212165Q653.662989580416 369.9318456734978 664.2033622716701 359.9462294396781Q674.7437349629242 349.9606132058584 688.6126463987848 344.53632784427737Q702.4815578346455 339.1120424826963 718.4462158874807 339.1120424826963L718.4462158874807 339.1120424826963Q739.7735196955152 339.1120424826963 756.4162134185481 348.63536166865396Q773.0589071415808 358.18950065780245 782.5822263275385 374.9246537904076Q792.1363653166869 391.6906267262036 792.1363653166869 413.4494077789094L792.1363653166869 413.4494077789094Q792.1363653166869 430.30784012427785 786.2497829072439 444.2692109697109Q780.3632004978008 458.26140161833473 769.9461070193099 468.24701785215444Q759.4981937376282 478.23263408597415 745.6292823017676 483.6569194475552Q731.7603708659069 489.112024612327 715.7957128130718 489.112024612327ZM718.692774313007 477.12312117110525L718.692774313007 477.12312117110525Q735.3354680360399 477.12312117110525 747.9715873442685 469.3565307670233Q760.6077066524971 461.5899403629413 767.603801976809 447.7210289270807Q774.5998973011209 433.85211749122004 774.5998973011209 415.88417223098276L774.5998973011209 415.88417223098276Q774.5998973011209 396.3444170080146 766.8333068970389 381.82828970514714Q759.066716492957 367.2813425990888 745.6292823017676 359.17573435990806Q732.2226679137689 351.0701261207273 715.3642355684005 351.0701261207273L715.3642355684005 351.0701261207273Q699.1530190900389 351.0701261207273 686.6093591913827 358.8367165248093Q674.0656992927265 366.60330692889124 666.9771445588422 380.37975895517945Q659.8885898249579 394.1253911782769 659.8885898249579 412.33989486404056L659.8885898249579 412.33989486404056Q659.8885898249579 431.6330916614823 667.6551802290398 446.272498177113Q675.4217706331218 460.9119046927437 688.8283850211205 469.01751293192444Q702.2658192123099 477.12312117110525 718.692774313007 477.12312117110525ZM839.3831236081857 487.1087374049249L824.9594557148905 487.1087374049249L824.9594557148905 383.70829769978604L837.8421334486455 383.70829769978604L839.3831236081857 487.1087374049249ZM907.9571857077188 473.1165467563011L908.4194827555808 487.1087374049249L901.3001082185057 487.1087374049249L831.1850559594324 394.1253911782769L831.1850559594324 383.70829769978604L840.2768979007188 383.70829769978604L907.9571857077188 473.1165467563011ZM902.6253597557103 383.70829769978604L916.8332890266696 383.70829769978604L916.8332890266696 487.1087374049249L903.9814310961054 487.1087374049249L902.6253597557103 383.70829769978604ZM972.5246733924479 487.1087374049249L957.4537896321459 487.1087374049249L957.4537896321459 383.70829769978604L972.5246733924479 383.70829769978604L972.5246733924479 487.1087374049249ZM1034.6573966251035 487.1087374049249L962.5390571586282 487.1087374049249L962.5390571586282 475.1198339637032L1034.6573966251035 475.1198339637032L1034.6573966251035 487.1087374049249ZM1021.3432416466775 441.18723065063074L962.5390571586282 441.18723065063074L962.5390571586282 429.4140658317446L1021.3432416466775 429.4140658317446L1021.3432416466775 441.18723065063074ZM1030.2193449656284 395.4506427154814L962.5390571586282 395.4506427154814L962.5390571586282 383.70829769978604L1030.2193449656284 383.70829769978604L1030.2193449656284 395.4506427154814ZM1131.647317266556 489.112024612327L1131.647317266556 489.112024612327Q1109.457058969179 489.112024612327 1092.475347411047 479.8969034582774Q1075.4936358529155 470.6817823042278 1066.0627760765303 454.1623677939582Q1056.631916300145 437.6121334804978 1056.631916300145 415.66843360864715L1056.631916300145 415.66843360864715Q1056.631916300145 398.34770421541674 1062.3952194968251 384.2630541572205Q1068.1893424966956 370.1784040990242 1078.7297151879498 360.0695086524413Q1089.2700878792039 349.9606132058584 1103.3547379374004 344.53632784427737Q1117.4393879955965 339.1120424826963 1134.082081718629 339.1120424826963L1134.082081718629 339.1120424826963Q1146.2867237821865 339.1120424826963 1157.5975915532108 342.19402280177644Q1168.9084593242349 345.3068229240474 1178.8940755580545 351.31668454625367L1178.8940755580545 351.31668454625367L1171.1274851539724 365.74035243954876Q1161.604165968015 358.62097790247367 1151.8342883565308 354.95342132276824Q1142.0644107450466 351.31668454625367 1130.537804351687 351.31668454625367L1130.537804351687 351.31668454625367Q1113.4328135807923 351.31668454625367 1100.7966942725636 359.08327495033564Q1088.160574964335 366.8498653544176 1081.164479640023 380.7187767902783Q1074.1683843157111 394.58768822613894 1074.1683843157111 412.98711073104744L1074.1683843157111 412.98711073104744Q1074.1683843157111 432.3111273316799 1082.0582539325565 446.734795224975Q1089.9173037462106 461.1584631182701 1103.231458724637 469.1407921446877Q1116.5456137030633 477.12312117110525 1132.9725688037602 477.12312117110525L1132.9725688037602 477.12312117110525Q1145.3929494896533 477.12312117110525 1155.5943043458087 472.9008081339655Q1165.8264790051546 468.6784950968256 1174.024546653908 461.3742017406057L1174.024546653908 461.3742017406057L1181.113101387792 474.22605967116993Q1170.0179722391035 481.56117283058063 1157.8133301755463 485.32118881985843Q1145.608688111989 489.112024612327 1131.647317266556 489.112024612327ZM1224.6306634932039 487.1087374049249L1209.0974826850397 487.1087374049249L1209.0974826850397 383.70829769978604L1224.6306634932039 383.70829769978604L1224.6306634932039 487.1087374049249ZM1288.3043768854 487.1087374049249L1214.182750211522 487.1087374049249L1214.182750211522 474.90409534136757L1288.3043768854 474.90409534136757L1288.3043768854 487.1087374049249ZM1332.469154857818 487.1087374049249L1316.7202354273186 487.1087374049249L1316.7202354273186 383.70829769978604L1332.469154857818 383.70829769978604L1332.469154857818 487.1087374049249ZM1419.6583780845954 488.4339889421294L1419.6583780845954 488.4339889421294Q1403.477981409425 488.4339889421294 1391.0576007235318 481.56117283058063Q1378.6064002344478 474.68835671903196 1371.7335841228992 462.8227324905734Q1364.8607680113505 450.92628845892403 1364.8607680113505 436.50262056562894L1364.8607680113505 436.50262056562894Q1364.8607680113505 421.2159981829914 1372.0726019579984 408.8880769066708Q1379.2844359046458 396.5601556303502 1391.828095803302 389.47160089646593Q1404.3717557019581 382.3830461625816 1420.3364137547933 382.3830461625816L1420.3364137547933 382.3830461625816Q1430.5377686109487 382.3830461625816 1439.5371511426624 385.4650264816617Q1448.505713871186 388.57782660393264 1455.625088408261 394.3411298006125L1455.625088408261 394.3411298006125L1445.8552107967766 405.00478170462986Q1440.5233848447683 399.6729557526212 1433.5272895204562 396.8067140558766Q1426.5620139993352 393.9096525559413 1419.0111622175887 393.9096525559413L1419.0111622175887 393.9096525559413Q1408.1317716912358 393.9096525559413 1399.5946862073838 399.02573988561437Q1391.0576007235318 404.11100741209657 1386.0647926066222 413.4494077789094Q1381.0719844897121 422.7569883425315 1381.0719844897121 435.17736902842444L1381.0719844897121 435.17736902842444Q1381.0719844897121 447.38201109198184 1386.0647926066222 456.7204114587947Q1391.0576007235318 466.0279920224167 1400.1494426648183 471.2365387616622Q1409.2412846061047 476.4450855009076 1421.4459266696622 476.4450855009076L1421.4459266696622 476.4450855009076Q1429.8905527439415 476.4450855009076 1436.7633688554902 474.01032104883427Q1443.6361849670393 471.575556596761 1448.505713871186 466.92176631495L1448.505713871186 466.92176631495L1456.056565652932 476.90738254876965Q1448.968010919048 482.4549471231139 1439.7528897649981 485.44446803262167Q1430.5377686109487 488.4339889421294 1419.6583780845954 488.4339889421294ZM1576.5619961289658 487.1087374049249L1555.6969893687933 487.1087374049249L1497.7865791732775 434.96163040608883L1554.3717378315887 383.70829769978604L1574.9901861662352 383.70829769978604L1508.6659696996298 438.96820482089305L1509.7754826144992 428.9825885870734L1576.5619961289658 487.1087374049249ZM1499.1118307104816 487.1087374049249L1483.578649902318 487.1087374049249L1483.578649902318 383.70829769978604L1499.1118307104816 383.70829769978604L1499.1118307104816 487.1087374049249Z " fill="#fad744" transform="matrix(0.5550050934186386,0,0,0.5550050934186385,0,70.16570370524751)"/></g></svg>