<svg xmlns="http://www.w3.org/2000/svg" viewBox="-82.86500501367188 64.38000106811523 740.72998046875 386.26999855041504"> <svg xmlns="http://www.w3.org/2000/svg" xmlns:xlink="http://www.w3.org/1999/xlink" version="1.1" id="Layer_1" x="224.039978" y="134.38000106811523" viewBox="68.40731811523438 165 1579.3994140625 1420" xml:space="preserve" height="130.78125" width="145.46183982022953" preserveAspectRatio="xMinYMin" enable-background="new 0 0 1700 1700" style="overflow: visible;"><path d="M1265,165H830.7c-61.7,0-111.8,50.2-111.8,111.8l4,1196.4L180.3,930.5h430.2V818.7H180.3c-45.4,0-85.9,27.1-103.3,69   c-17.4,41.9-7.9,89.8,24.2,121.8l542.7,542.7c21.4,21.4,49.9,32.8,79,32.8c14.4,0,29-2.8,42.9-8.6c41.9-17.4,69-57.9,69-103.5   l-4-1196.2H1265c148.5,0,270,120.8,270.9,269.3c0.4,72.7-27.5,141.1-78.8,192.7c-51.2,51.6-119.5,80-192.2,80H944.4v111.8H1265   c102.7,0,199.1-40.1,271.5-112.9c72.4-72.8,111.9-169.5,111.3-272.2C1646.4,335.7,1474.7,165,1265,165z" style=""></path></svg> <svg y="367.8099994659424" viewBox="1.3899999856948853 6.190000057220459 221.0399932861328 12.84000015258789" x="176.98001122070312" height="12.84000015258789" width="221.0399932861328" style="overflow: visible;"><g fill="#000" style=""><path d="M3.02 6.35L3.02 17.57L7.42 17.57L7.42 18.90L1.39 18.90L1.39 6.35L3.02 6.35ZM18.07 7.69L12.96 7.69L12.96 11.88L17.53 11.88L17.53 13.23L12.96 13.23L12.96 17.55L18.07 17.55L18.07 18.90L11.32 18.90L11.32 6.34L18.07 6.34L18.07 7.69ZM21.94 6.35L30.44 6.35L30.44 7.69L27.02 7.69L27.02 18.90L25.38 18.90L25.38 7.69L21.94 7.69L21.94 6.35ZM38.59 19.03Q37.35 19.03 36.37 18.59Q35.39 18.14 34.83 17.36Q34.27 16.58 34.25 15.55L34.25 15.55L36.00 15.55Q36.09 16.43 36.73 17.04Q37.37 17.64 38.59 17.64L38.59 17.64Q39.76 17.64 40.44 17.06Q41.11 16.47 41.11 15.55L41.11 15.55Q41.11 14.83 40.72 14.38Q40.32 13.93 39.73 13.70Q39.13 13.46 38.12 13.19L38.12 13.19Q36.88 12.87 36.14 12.55Q35.39 12.22 34.86 11.53Q34.33 10.84 34.33 9.67L34.33 9.67Q34.33 8.64 34.85 7.85Q35.37 7.06 36.32 6.62Q37.26 6.19 38.48 6.19L38.48 6.19Q40.25 6.19 41.37 7.07Q42.50 7.96 42.64 9.41L42.64 9.41L40.84 9.41Q40.75 8.69 40.09 8.15Q39.42 7.60 38.32 7.60L38.32 7.60Q37.30 7.60 36.65 8.13Q36.00 8.66 36.00 9.61L36.00 9.61Q36.00 10.30 36.39 10.73Q36.77 11.16 37.34 11.39Q37.91 11.61 38.93 11.90L38.93 11.90Q40.18 12.24 40.93 12.57Q41.69 12.91 42.23 13.60Q42.77 14.29 42.77 15.48L42.77 15.48Q42.77 16.40 42.28 17.21Q41.80 18.02 40.84 18.52Q39.89 19.03 38.59 19.03L38.59 19.03ZM60.59 12.44Q61.27 12.55 61.84 13.00Q62.41 13.45 62.74 14.11Q63.07 14.78 63.07 15.53L63.07 15.53Q63.07 16.49 62.59 17.25Q62.10 18.02 61.17 18.46Q60.25 18.90 58.99 18.90L58.99 18.90L54.31 18.90L54.31 6.35L58.81 6.35Q60.08 6.35 60.98 6.78Q61.88 7.20 62.33 7.92Q62.78 8.64 62.78 9.54L62.78 9.54Q62.78 10.66 62.18 11.39Q61.58 12.11 60.59 12.44L60.59 12.44ZM55.94 7.70L55.94 11.77L58.70 11.77Q59.85 11.77 60.48 11.23Q61.11 10.69 61.11 9.74L61.11 9.74Q61.11 8.78 60.48 8.24Q59.85 7.70 58.66 7.70L58.66 7.70L55.94 7.70ZM58.84 17.55Q60.07 17.55 60.75 16.97Q61.43 16.40 61.43 15.37L61.43 15.37Q61.43 14.33 60.71 13.73Q59.99 13.12 58.79 13.12L58.79 13.12L55.94 13.12L55.94 17.55L58.84 17.55ZM67.46 6.35L69.10 6.35L69.10 14.29Q69.10 15.97 69.92 16.78Q70.74 17.59 72.20 17.59L72.20 17.59Q73.64 17.59 74.46 16.78Q75.28 15.97 75.28 14.29L75.28 14.29L75.28 6.35L76.91 6.35L76.91 14.27Q76.91 15.84 76.28 16.91Q75.65 17.98 74.58 18.50Q73.51 19.03 72.18 19.03L72.18 19.03Q70.85 19.03 69.78 18.50Q68.71 17.98 68.09 16.91Q67.46 15.84 67.46 14.27L67.46 14.27L67.46 6.35ZM81.81 6.35L83.45 6.35L83.45 18.90L81.81 18.90L81.81 6.35ZM90.04 6.35L90.04 17.57L94.43 17.57L94.43 18.90L88.40 18.90L88.40 6.35L90.04 6.35ZM102.24 6.35Q104.29 6.35 105.79 7.12Q107.30 7.88 108.10 9.31Q108.90 10.73 108.90 12.65L108.90 12.65Q108.90 14.58 108.10 15.99Q107.30 17.41 105.79 18.15Q104.29 18.90 102.24 18.90L102.24 18.90L98.33 18.90L98.33 6.35L102.24 6.35ZM102.24 17.55Q104.67 17.55 105.95 16.26Q107.23 14.98 107.23 12.65L107.23 12.65Q107.23 10.31 105.94 9.00Q104.65 7.69 102.24 7.69L102.24 7.69L99.97 7.69L99.97 17.55L102.24 17.55ZM119.41 6.35L127.91 6.35L127.91 7.69L124.49 7.69L124.49 18.90L122.85 18.90L122.85 7.69L119.41 7.69L119.41 6.35ZM137.77 19.03Q136.03 19.03 134.59 18.21Q133.15 17.39 132.31 15.92Q131.47 14.45 131.47 12.62L131.47 12.62Q131.47 10.78 132.31 9.32Q133.15 7.85 134.59 7.03Q136.03 6.21 137.77 6.21L137.77 6.21Q139.54 6.21 140.98 7.03Q142.42 7.85 143.24 9.31Q144.07 10.76 144.07 12.62L144.07 12.62Q144.07 14.47 143.24 15.93Q142.42 17.39 140.98 18.21Q139.54 19.03 137.77 19.03L137.77 19.03ZM137.77 17.60Q139.09 17.60 140.14 16.99Q141.19 16.38 141.79 15.25Q142.40 14.11 142.40 12.62L142.40 12.62Q142.40 11.11 141.79 9.98Q141.19 8.86 140.15 8.24Q139.10 7.63 137.77 7.63L137.77 7.63Q136.44 7.63 135.40 8.24Q134.35 8.86 133.75 9.98Q133.15 11.11 133.15 12.62L133.15 12.62Q133.15 14.11 133.75 15.25Q134.35 16.38 135.40 16.99Q136.46 17.60 137.77 17.60L137.77 17.60ZM159.86 9.99L157.90 9.99Q157.37 8.89 156.38 8.29Q155.39 7.69 154.08 7.69L154.08 7.69Q152.77 7.69 151.71 8.29Q150.66 8.89 150.06 10.02Q149.45 11.14 149.45 12.62L149.45 12.62Q149.45 14.09 150.06 15.21Q150.66 16.33 151.71 16.93Q152.77 17.53 154.08 17.53L154.08 17.53Q155.92 17.53 157.10 16.43Q158.29 15.34 158.49 13.46L158.49 13.46L153.49 13.46L153.49 12.13L160.24 12.13L160.24 13.39Q160.09 14.94 159.26 16.23Q158.44 17.51 157.09 18.26Q155.74 19.01 154.08 19.01L154.08 19.01Q152.33 19.01 150.89 18.19Q149.45 17.37 148.62 15.91Q147.78 14.45 147.78 12.62L147.78 12.62Q147.78 10.78 148.62 9.32Q149.45 7.85 150.89 7.03Q152.33 6.21 154.08 6.21L154.08 6.21Q156.08 6.21 157.62 7.20Q159.16 8.19 159.86 9.99L159.86 9.99ZM171.31 7.69L166.19 7.69L166.19 11.88L170.77 11.88L170.77 13.23L166.19 13.23L166.19 17.55L171.31 17.55L171.31 18.90L164.56 18.90L164.56 6.34L171.31 6.34L171.31 7.69ZM175.18 6.35L183.67 6.35L183.67 7.69L180.25 7.69L180.25 18.90L178.61 18.90L178.61 7.69L175.18 7.69L175.18 6.35ZM195.88 6.35L197.51 6.35L197.51 18.90L195.88 18.90L195.88 13.21L189.49 13.21L189.49 18.90L187.85 18.90L187.85 6.35L189.49 6.35L189.49 11.86L195.88 11.86L195.88 6.35ZM209.21 7.69L204.10 7.69L204.10 11.88L208.67 11.88L208.67 13.23L204.10 13.23L204.10 17.55L209.21 17.55L209.21 18.90L202.46 18.90L202.46 6.34L209.21 6.34L209.21 7.69ZM222.43 18.90L220.46 18.90L217.48 13.77L215.50 13.77L215.50 18.90L213.86 18.90L213.86 6.35L217.91 6.35Q219.33 6.35 220.31 6.84Q221.29 7.33 221.78 8.15Q222.26 8.98 222.26 10.04L222.26 10.04Q222.26 11.34 221.52 12.33Q220.77 13.32 219.28 13.64L219.28 13.64L222.43 18.90ZM215.50 7.70L215.50 12.46L217.91 12.46Q219.24 12.46 219.91 11.80Q220.57 11.14 220.57 10.04L220.57 10.04Q220.57 8.93 219.91 8.32Q219.26 7.70 217.91 7.70L217.91 7.70L215.50 7.70Z" transform="translate(0, 0)"></path></g></svg> <svg y="312.1900005340576" viewBox="4.829999923706055 3.299999952316284 600.72998046875 32.47999954223633" x="-12.865005013671876" height="32.47999954223633" width="600.72998046875" style="overflow: visible;"><g fill="#000" style=""><path d="M39.51 14.62L39.51 14.62Q39.51 16.94 38.83 18.88Q38.16 20.82 36.67 22.23Q35.17 23.63 32.79 24.42Q30.41 25.20 27.00 25.20L27.00 25.20L13.16 25.20L13.16 34.95L4.83 34.95L4.83 4.09L27.00 4.09Q30.41 4.09 32.79 4.86Q35.17 5.64 36.67 7.04Q38.16 8.45 38.83 10.38Q39.51 12.31 39.51 14.62ZM31.09 14.76L31.09 14.76Q31.09 13.68 30.78 12.90Q30.48 12.13 29.78 11.63Q29.09 11.14 27.96 10.90Q26.84 10.67 25.20 10.67L25.20 10.67L13.16 10.67L13.16 18.62L25.20 18.62Q26.84 18.62 27.96 18.43Q29.09 18.24 29.78 17.78Q30.48 17.32 30.78 16.58Q31.09 15.83 31.09 14.76ZM57.04 23.58L57.04 34.95L48.70 34.95L48.70 4.09L69.59 4.09Q72.96 4.09 75.31 4.78Q77.66 5.48 79.13 6.76Q80.60 8.04 81.26 9.85Q81.92 11.66 81.92 13.88L81.92 13.88Q81.92 15.83 81.37 17.29Q80.82 18.75 79.89 19.80Q78.96 20.84 77.72 21.56Q76.49 22.28 75.12 22.75L75.12 22.75L85.23 34.95L75.48 34.95L66.13 23.58L57.04 23.58ZM73.50 13.84L73.50 13.84Q73.50 12.94 73.27 12.31Q73.03 11.68 72.45 11.29Q71.86 10.89 70.88 10.71Q69.91 10.53 68.45 10.53L68.45 10.53L57.04 10.53L57.04 17.14L68.45 17.14Q69.91 17.14 70.88 16.96Q71.86 16.78 72.45 16.39Q73.03 15.99 73.27 15.36Q73.50 14.73 73.50 13.84ZM133.21 19.54L133.21 19.54Q133.21 23.52 131.75 26.56Q130.29 29.60 127.57 31.65Q124.86 33.69 120.98 34.74Q117.11 35.78 112.28 35.78L112.28 35.78Q107.45 35.78 103.55 34.74Q99.65 33.69 96.91 31.65Q94.17 29.60 92.69 26.56Q91.21 23.52 91.21 19.54L91.21 19.54Q91.21 15.57 92.69 12.52Q94.17 9.48 96.91 7.43Q99.65 5.39 103.55 4.35Q107.45 3.30 112.28 3.30L112.28 3.30Q117.11 3.30 120.98 4.35Q124.86 5.39 127.57 7.43Q130.29 9.48 131.75 12.52Q133.21 15.57 133.21 19.54ZM124.79 19.54L124.79 19.54Q124.79 17.81 124.24 16.09Q123.69 14.38 122.28 13.00Q120.88 11.63 118.45 10.78Q116.03 9.93 112.28 9.93L112.28 9.93Q109.76 9.93 107.85 10.32Q105.94 10.71 104.55 11.41Q103.16 12.11 102.22 13.04Q101.27 13.97 100.71 15.04Q100.15 16.10 99.91 17.26Q99.68 18.42 99.68 19.54L99.68 19.54Q99.68 20.69 99.91 21.85Q100.15 23.02 100.71 24.09Q101.27 25.16 102.22 26.08Q103.16 27.00 104.55 27.68Q105.94 28.37 107.85 28.76Q109.76 29.15 112.28 29.15L112.28 29.15Q116.03 29.15 118.45 28.30Q120.88 27.45 122.28 26.08Q123.69 24.71 124.24 22.99Q124.79 21.27 124.79 19.54ZM197.38 14.62L197.38 14.62Q197.38 16.94 196.70 18.88Q196.03 20.82 194.54 22.23Q193.04 23.63 190.66 24.42Q188.28 25.20 184.87 25.20L184.87 25.20L171.03 25.20L171.03 34.95L162.70 34.95L162.70 4.09L184.87 4.09Q188.28 4.09 190.66 4.86Q193.04 5.64 194.54 7.04Q196.03 8.45 196.70 10.38Q197.38 12.31 197.38 14.62ZM188.95 14.76L188.95 14.76Q188.95 13.68 188.65 12.90Q188.35 12.13 187.65 11.63Q186.96 11.14 185.83 10.90Q184.71 10.67 183.07 10.67L183.07 10.67L171.03 10.67L171.03 18.62L183.07 18.62Q184.71 18.62 185.83 18.43Q186.96 18.24 187.65 17.78Q188.35 17.32 188.65 16.58Q188.95 15.83 188.95 14.76ZM238.13 34.95L206.57 34.95L206.57 4.09L237.82 4.09L237.82 10.67L215.13 10.67L215.13 15.77L236.65 15.77L236.65 22.35L215.13 22.35L215.13 28.37L238.13 28.37L238.13 34.95ZM288.41 19.54L288.41 19.54Q288.41 23.52 286.95 26.56Q285.49 29.60 282.77 31.65Q280.05 33.69 276.18 34.74Q272.30 35.78 267.47 35.78L267.47 35.78Q262.64 35.78 258.75 34.74Q254.85 33.69 252.11 31.65Q249.37 29.60 247.89 26.56Q246.41 23.52 246.41 19.54L246.41 19.54Q246.41 15.57 247.89 12.52Q249.37 9.48 252.11 7.43Q254.85 5.39 258.75 4.35Q262.64 3.30 267.47 3.30L267.47 3.30Q272.30 3.30 276.18 4.35Q280.05 5.39 282.77 7.43Q285.49 9.48 286.95 12.52Q288.41 15.57 288.41 19.54ZM279.98 19.54L279.98 19.54Q279.98 17.81 279.43 16.09Q278.88 14.38 277.48 13.00Q276.08 11.63 273.65 10.78Q271.22 9.93 267.47 9.93L267.47 9.93Q264.96 9.93 263.05 10.32Q261.14 10.71 259.75 11.41Q258.35 12.11 257.41 13.04Q256.47 13.97 255.91 15.04Q255.34 16.10 255.11 17.26Q254.87 18.42 254.87 19.54L254.87 19.54Q254.87 20.69 255.11 21.85Q255.34 23.02 255.91 24.09Q256.47 25.16 257.41 26.08Q258.35 27.00 259.75 27.68Q261.14 28.37 263.05 28.76Q264.96 29.15 267.47 29.15L267.47 29.15Q271.22 29.15 273.65 28.30Q276.08 27.45 277.48 26.08Q278.88 24.71 279.43 22.99Q279.98 21.27 279.98 19.54ZM332.98 14.62L332.98 14.62Q332.98 16.94 332.31 18.88Q331.63 20.82 330.14 22.23Q328.64 23.63 326.26 24.42Q323.88 25.20 320.47 25.20L320.47 25.20L306.63 25.20L306.63 34.95L298.30 34.95L298.30 4.09L320.47 4.09Q323.88 4.09 326.26 4.86Q328.64 5.64 330.14 7.04Q331.63 8.45 332.31 10.38Q332.98 12.31 332.98 14.62ZM324.56 14.76L324.56 14.76Q324.56 13.68 324.25 12.90Q323.95 12.13 323.25 11.63Q322.56 11.14 321.43 10.90Q320.31 10.67 318.67 10.67L318.67 10.67L306.63 10.67L306.63 18.62L318.67 18.62Q320.31 18.62 321.43 18.43Q322.56 18.24 323.25 17.78Q323.95 17.32 324.25 16.58Q324.56 15.83 324.56 14.76ZM373.04 34.95L342.17 34.95L342.17 4.09L350.51 4.09L350.51 28.19L373.04 28.19L373.04 34.95ZM413.56 34.95L382.01 34.95L382.01 4.09L413.25 4.09L413.25 10.67L390.56 10.67L390.56 15.77L412.08 15.77L412.08 22.35L390.56 22.35L390.56 28.37L413.56 28.37L413.56 34.95ZM473.91 10.80L460.80 10.80L460.80 34.95L452.46 34.95L452.46 10.80L439.37 10.80L439.37 4.09L473.91 4.09L473.91 10.80ZM513.27 34.95L481.72 34.95L481.72 4.09L512.96 4.09L512.96 10.67L490.27 10.67L490.27 15.77L511.79 15.77L511.79 22.35L490.27 22.35L490.27 28.37L513.27 28.37L513.27 34.95ZM557.62 32.84L557.62 32.84Q556.00 33.51 554.36 34.05Q552.72 34.59 550.97 34.98Q549.22 35.38 547.28 35.58Q545.33 35.78 543.11 35.78L543.11 35.78Q538.39 35.78 534.43 34.77Q530.46 33.76 527.60 31.73Q524.74 29.69 523.14 26.65Q521.55 23.61 521.55 19.54L521.55 19.54Q521.55 15.48 523.14 12.43Q524.74 9.39 527.60 7.36Q530.46 5.32 534.43 4.31Q538.39 3.30 543.11 3.30L543.11 3.30Q545.33 3.30 547.28 3.50Q549.22 3.71 550.97 4.10Q552.72 4.49 554.36 5.03Q556.00 5.57 557.62 6.24L557.62 6.24L557.62 13.75Q556.34 13.05 554.92 12.36Q553.51 11.68 551.80 11.13Q550.10 10.58 548.05 10.23Q546.01 9.88 543.45 9.88L543.45 9.88Q539.52 9.88 536.92 10.69Q534.33 11.50 532.78 12.85Q531.23 14.20 530.60 15.94Q529.97 17.68 529.97 19.54L529.97 19.54Q529.97 20.78 530.24 21.98Q530.51 23.18 531.14 24.25Q531.77 25.31 532.78 26.21Q533.79 27.11 535.29 27.76Q536.80 28.41 538.81 28.78Q540.82 29.15 543.45 29.15L543.45 29.15Q546.01 29.15 548.05 28.83Q550.10 28.50 551.80 27.96Q553.51 27.42 554.92 26.74Q556.34 26.05 557.62 25.34L557.62 25.34L557.62 32.84ZM605.56 34.95L597.23 34.95L597.23 22.08L576.02 22.08L576.02 34.95L567.69 34.95L567.69 4.09L576.02 4.09L576.02 15.32L597.23 15.32L597.23 4.09L605.56 4.09L605.56 34.95Z" transform="translate(0, 0)"></path></g></svg></svg>